<svg width="512" height="512" viewBox="0 0 512 512" fill="none" xmlns="http://www.w3.org/2000/svg">
  <!-- Background Circle -->
  <circle cx="256" cy="256" r="256" fill="#000000"/>
  
  <!-- Gold Circle Background -->
  <circle cx="256" cy="256" r="200" fill="#D4AF37"/>
  
  <!-- Music Note -->
  <path d="M320 150 L320 350 M320 150 L380 170 L380 280 L320 260" stroke="#000000" stroke-width="20" fill="none" stroke-linecap="round" stroke-linejoin="round"/>
  <circle cx="320" cy="360" r="30" fill="#000000"/>
  <circle cx="380" cy="290" r="25" fill="#000000"/>
  
  <!-- Open Book -->
  <path d="M160 200 Q180 180 200 200 L200 320 Q180 340 160 320 Z" fill="#000000" opacity="0.8"/>
  <path d="M200 200 Q220 180 240 200 L240 320 Q220 340 200 320 Z" fill="#000000"/>
  <line x1="200" y1="220" x2="235" y2="220" stroke="#D4AF37" stroke-width="3"/>
  <line x1="200" y1="240" x2="235" y2="240" stroke="#D4AF37" stroke-width="3"/>
  <line x1="200" y1="260" x2="235" y2="260" stroke="#D4AF37" stroke-width="3"/>
</svg>
